# xmcd
#
# Track frame offsets:
#	182
#	12572
#	28765
#	55585
#	66375
#	100835
#	113267
#	149117
#	163882
#	178830
#
# Disc length: 2731 seconds
#
# Revision: 1
# Processed by: cddbd v1.4PL0 Copyright (c) Steve Scherf et al.
# Submitted via: MusicManager 7.0.3.0 
#
DISCID=8d0aa90a
DTITLE=Jumpin' The Gun - Shades Of Blue
DYEAR=1993
DGENRE=
TTITLE0=Cryin' Blues
TTITLE1=Green All Over
TTITLE2=Turtle Blues
TTITLE3=Crossed Wires
TTITLE4=More And More
TTITLE5=Tired Of Tryin'
TTITLE6=Shades Of Blue
TTITLE7=Mind Reader
TTITLE8=Sweet Jesus
TTITLE9=All I Say To You
EXTD=
EXTT0=
EXTT1=
EXTT2=
EXTT3=
EXTT4=
EXTT5=
EXTT6=
EXTT7=
EXTT8=
EXTT9=
PLAYORDER=
